<svg id="Layer_1" data-name="Layer 1" xmlns="http://www.w3.org/2000/svg" viewBox="0 0 122.84 50"><defs><style>.cls-1{fill:#af9b60;}.cls-2{fill:#4d4d4d;}.cls-3{font-size:6.5px;}.cls-3,.cls-5{fill:#666;}.cls-3,.cls-4,.cls-5,.cls-6{font-family:Copperplate, Copperplate;}.cls-4,.cls-5{font-size:6.5px;}.cls-6{font-size:18px;fill:#b3b3b3;stroke:gray;}.cls-6,.cls-7{stroke-miterlimit:10;stroke-width:0.25px;}.cls-7{fill:#a59156;stroke:#666;}</style></defs><title>Artboard 1</title><circle class="cls-1" cx="23.5" cy="25" r="19.25"/><path class="cls-2" d="M23.5,6a19,19,0,1,1-19,19,19,19,0,0,1,19-19m0-.5A19.5,19.5,0,1,0,43,25,19.5,19.5,0,0,0,23.5,5.5Z"/><circle class="cls-1" cx="23.5" cy="25" r="9.63"/><path class="cls-2" d="M23.5,15.5A9.5,9.5,0,1,1,14,25a9.51,9.51,0,0,1,9.5-9.5m0-.25A9.75,9.75,0,1,0,33.25,25a9.76,9.76,0,0,0-9.75-9.75Z"/><g id="DP"><text class="cls-3" transform="translate(8.04 30.55) rotate(62.88)">P</text><text class="cls-3" transform="translate(10.52 35.05) rotate(45.51)">r</text><text class="cls-3" transform="translate(13.91 38.35) rotate(28.95)">o</text><text class="cls-3" transform="translate(18.05 40.48) rotate(13.71)">t</text><text class="cls-3" transform="translate(21.91 41.38) rotate(-1.36)">o</text><text class="cls-3" transform="translate(26.58 41.14) rotate(-17.19)">c</text><text class="cls-3" transform="translate(30.72 39.78) rotate(-33.18)">o</text><text class="cls-3" transform="matrix(0.66, -0.75, 0.75, 0.66, 34.57, 37.12)">l</text><text class="cls-3" transform="translate(37.34 33.8) rotate(-64.1)">s</text><text class="cls-4" transform="translate(12.35 20.26) rotate(-64.72)">D</text><text class="cls-4" transform="translate(14.19 16.41) rotate(-45.88)">e</text><text class="cls-4" transform="translate(16.41 14.05) rotate(-29.57)">f</text><text class="cls-4" transform="translate(19.19 12.4) rotate(-13.09)">e</text><text class="cls-4" transform="translate(22.3 11.56) rotate(4.82)">n</text><text class="cls-4" transform="translate(26.2 11.88) rotate(22.92)">s</text><text class="cls-4" transform="matrix(0.81, 0.59, -0.59, 0.81, 29.22, 13.21)">i</text><text class="cls-4" transform="matrix(0.66, 0.76, -0.76, 0.66, 30.79, 14.21)">v</text><text class="cls-4" transform="translate(32.96 16.63) rotate(65.49)">e</text><text class="cls-5" transform="translate(12.35 20.26) rotate(-64.72)">D</text><text class="cls-5" transform="translate(14.19 16.41) rotate(-45.88)">e</text><text class="cls-5" transform="translate(16.41 14.05) rotate(-29.57)">f</text><text class="cls-5" transform="translate(19.19 12.4) rotate(-13.09)">e</text><text class="cls-5" transform="translate(22.3 11.56) rotate(4.82)">n</text><text class="cls-5" transform="translate(26.2 11.88) rotate(22.92)">s</text><text class="cls-5" transform="matrix(0.81, 0.59, -0.59, 0.81, 29.22, 13.21)">i</text><text class="cls-5" transform="matrix(0.66, 0.76, -0.76, 0.66, 30.79, 14.21)">v</text><text class="cls-5" transform="translate(32.96 16.63) rotate(65.49)">e</text></g><g id="Layer_2" data-name="Layer 2"><text class="cls-6" transform="translate(43.81 29.07)">DefPros</text><circle class="cls-7" cx="23.5" cy="25" r="5"/></g></svg>